<svg width="189" height="194" xmlns="http://www.w3.org/2000/svg" version="1.1">
 <g>
  <title>Layer 1</title>
  <g transform="rotate(-36 101.468 94.9147)" id="svg_9">
   <path id="svg_1" data-index="1" fill="#000000" d="m99.38324,-2.10526l4.72,0c1.8,0.42 3.74,0.56 4.9,2.18c1.16,1.48 0.46,3.17 0.05,4.77c-1.58,5.36 -3.76,10.57 -5.14,15.98c-0.47,7.32 -0.21,14.72 -0.51,22.06c9.37,2.79 19.5,6.61 27.06,12.95c1.29,-2.34 2.1,-3.08 4.63,-3.94c8.41,-2.82 17.12,-5.14 25.96,-6.03c2.98,-0.24 5.32,-1.94 8.1,-0.07c9.37,6.36 16.29,16.64 19.72,27.35c3.4,10.33 5.77,21 7.22,31.77l0,2.13c-3.16,3.66 -7.55,2.59 -11.95,3.42c-9.32,1.32 -17.54,3.35 -27.07,1.33c-2,-0.46 -3.51,-1.6 -5.18,-2.72c-4.22,15.24 -17.22,26.13 -31.86,30.94c-1.99,0.83 -3.11,0 -4.85,-0.85c-1.14,7.77 -5.84,13.92 -11.22,19.33c-17.69,15.41 -28.1,22.55 -38.35,29.94c-2.3,1.61 -4.82,2.52 -7.42,3.5c1.33,-7.39 2.8,-14.75 4.15,-22.14c-3.31,-0.61 -6.61,-1.21 -9.9,-1.86c-3.84,-0.78 -7.71,-1.42 -11.57,-2.05c3,-3.89 6.32,-7.36 10.25,-10.33c4.63,-3.475 9.2925,-6.9175 13.9925,-10.30625c4.7,-3.38875 14.77083,-9.39042 19.55083,-12.65042c-4.9,-5.35 -11.34,-12.53583 -17.11625,-16.96083c-5.77625,-4.425 -14.88875,-10.08917 -21.13375,-13.72917c-0.6775,3.1775 -2.69333,13.02105 -3.38192,16.19683c-0.6886,3.17578 -1.38329,6.35046 -2.08516,9.52359c-1.40375,6.34625 -2.83625,12.68625 -4.30625,19.01625c-4.11,-6.83 -8.16,-13.7 -12.33,-20.49c-5.63,2.9 -11.2,5.93 -16.87,8.75c-0.15,-1.13 -0.28,-2.27 -0.41,-3.4c-0.41,-5.05 -0.15,-10.13 0.68,-15.13c1.35,-7.94 2.88,-15.85 4.77,-23.69c5.43,-14.67 7.96,-19.96 12.16,-23.22c3.89,-3.08 9.41,-3.26 14.06,-2.19c0.37,-4.42 3.08,-7.07 5.92,-10.13c-0.79,-9.11 -1.63,-18.22 -2.42,-27.34c-0.24,-4.03 -2.99,-6.91 -1.96,-10.9c0.95,-4.06 4.4,-6.32 7.99,-7.88c10.98,-4.76 22.92,-9.41 34.83,-10.94c2.73,-0.415 5.435,-0.8375 8.145,-1.21875c1.355,-0.19062 2.71125,-0.37094 4.0725,-0.53484c1.36125,-0.16391 2.7275,-0.31141 4.1025,-0.43641z"/>
   <path id="svg_2" data-index="3" fill="#e9d18b" d="m99.10324,-0.12527c3.25,-0.15 6.19,-0.51 8.88,1.7c-4.34,13.93 -9.33,27.65 -13.61,41.6c-1.32,4.02 -1.38,8.84 -3.42,12.53c-1.38,2.3 -3.28,1.09 -5.36,0.79c-7.68,-1.51 -15,-6.39 -21.62,-10.46c-7.33,-4.51 -13.44,-10.56 -18.7,-17.32c-2.04,-2.87 -4.32,-6.89 -2.77,-10.45c1.43,-3.29 4.74,-4.7 7.81,-6.05c10.05,-4.24 20.91,-8.52 31.75,-10.04c5.65,-0.84 11.34,-1.86 17.04,-2.3z"/>
   <path id="svg_3" data-index="4" fill="#e9d18b" d="m101.68324,26.92473c0,4.91 -0.13,9.82 -0.22,14.73c-1.59,0.27 -3.19,0.53 -4.79,0.78c1.25,-4.3 2.71,-8.57 4.11,-12.83c0.3,-0.89 0.6,-1.79 0.9,-2.68z"/>
   <path id="svg_4" data-index="5" fill="#e9d18b" d="m44.36324,31.46473c5.04,4.65 9.3,9.89 14.97,13.86c-4.07,3.34 -8.58,5.9 -13.03,8.67c-0.58,-7.52 -1.38,-15.01 -1.94,-22.53z"/>
   <path id="svg_5" data-index="6" fill="#e9d18b" d="m102.35324,44.59473c6.18,1.68 12.36,4.06 18.08,6.96c5.93,2.94 11.18,7.51 15.81,12.19c3.99,3.97 6.45,8.74 9.45,13.56c3.09,4.92 4.57,10.84 5.24,16.57c0.65,7.62 -0.18,15.2 -3.83,22.02c-6.05,11.53 -17.11,19.07 -29.33,22.87c-2.34,-3.02 -3.82,-7.54 -7.1,-9.49c-4.87,-3.2 -10.03,-2.79 -15.55,-2c-3.31,0.41 -5.97,2.03 -9.08,3.02c-2.48,0.38 -4.15,-3.12 -5.71,-4.64c-6.06,-6.69 -12.54,-14.12 -20.51,-18.51c-3.73,-2.58 -7.39,-5.3 -11.06,-7.96c-1.59,-1.13 -1.49,-2.5 -1.36,-4.26c0.49,-5.47 0.65,-11.11 0.01,-16.57c-0.75,-4.74 -3.96,-7.85 -6.45,-11.65c-0.47,-1.58 1.2,-3.59 2.09,-4.83c3.76,-4.54 8.44,-8.38 13.22,-11.81c2.29,-1.46 4.65,-3.22 7.45,-1.79c6.8,3.71 12.53,8 20.3,9.78c2.8,0.63 6.45,1.96 8.74,-0.5c2.33,-3.59 2.22,-8.7 4.66,-12.33c1.12,-1.79 3.28,-0.93 4.93,-0.63z"/>
   <path id="svg_6" data-index="7" fill="#e9d18b" d="m168.99324,48.00473c7.73,5.76 13.65,14.07 17.05,23.05c4.16,11.43 6.51,23.18 8.34,35.17c-2,1.44 -3.84,1.75 -6.27,1.91c-8.93,0.64 -16.98,3.29 -26.05,2.46c-3.08,-0.22 -7.45,-0.66 -9,-3.8c-0.51,-2.54 -0.16,-5.32 0,-7.9c1.15,-12.84 2.64,-25.33 6.27,-37.73c1.28,-4.31 1.87,-9.77 4.6,-13.42c1.64,-1.79 3.39,-0.9 5.06,0.26z"/>
   <path id="svg_7" data-index="8" fill="#e9d18b" d="m161.42324,47.65473c-2.41,5.43 -3.34,11.09 -4.96,16.76c-1.94,6.89 -2.92,13.86 -3.96,20.92c-4.26,-7.56 -8.64,-15.13 -13.62,-22.25c-1.89,-2.73 -4.24,-4.97 -6.56,-7.33c1.56,-1.15 3.14,-2.09 5.01,-2.63c7.89,-2.46 15.87,-4.53 24.09,-5.47z"/>
   <path id="svg_8" data-index="9" fill="#000000" d="m65.17324,53.48473c-0.55,3.68 -1.43,7.58 0.18,11.12c1.25,2.83 3.79,4.53 6.69,5.37c5.57,1.76 10.77,-0.23 16.5,1.1c-5.26,2.78 -11.59,2.9 -17.27,1.56c-3.92,-0.92 -7.1,-3.51 -8.71,-7.21c-1.45,-3.2 -1.2,-6.41 -0.82,-9.8c1.15,-2.27 0.52,-2.69 3.43,-2.14z"/>
   <path id="svg_12" data-index="13" fill="#e9d18b" d="m37.08324,68.86473c3.14,0.73 4.95,3.24 5.8,6.21c3,10.32 2.72,21.12 0.6,31.58c-2.39,11.66 -4.98,23.27 -7.65,34.87c-3.63,-5.97 -7.19,-11.98 -10.76,-17.97c-5.28,2.73 -10.69,5.29 -15.83,8.25c0.25,-6.86 -0.35,-13.5 1.46,-20.22c2.59,-10.52 3.51,-21.53 8.16,-30.91c1.65,-3.35 3.74,-6.98 6.64,-9.4c3,-2.66 7.79,-3.13 11.58,-2.41z"/>
   <path id="svg_13" data-index="14" fill="#000000" d="m122.52324,74.43473c5.19,-2.05 11.27,-1.25 15.32,2.7c4.49,4.24 5.52,10.81 3.82,16.58c-2.45,8.88 -10.96,16.87 -20.62,16c-6.81,-0.3 -12.15,-6.14 -12.7,-12.78c-1.16,-9.68 5.27,-19.06 14.18,-22.5z"/>
   <path id="svg_14" data-index="15" fill="#ffffff" d="m125.52324,75.40473c5.88,-1.24 11.55,1.6 13.89,7.14c3.53,8.3 -1.4,18.5 -8.71,23.02c-4.55,2.81 -10.28,3.55 -14.98,0.6c-4.19,-2.68 -5.91,-7.54 -5.71,-12.36c0.55,-8.5 7.16,-16.52 15.51,-18.4z"/>
   <path id="svg_16" data-index="17" fill="#000000" d="m77.58324,76.55473c7.08,-2.08 15.33,0.01 20.26,5.6c3.29,3.51 4.49,9.08 5.05,13.72c0.38,3.58 -0.57,7.07 -3.75,9.07c-8.63,5.32 -22,3.35 -27.83,-5.28c-3.57,-4.93 -3.56,-11.74 -1.68,-17.31c1.6,-2.85 4.88,-4.86 7.95,-5.8z"/>
   <path id="svg_21" data-index="22" fill="#e9d18b" d="m77.49324,79.33473c5.86,-1.99 12.45,-1.18 17.06,3.11c4.78,4.36 6.13,11.22 5.63,17.42c-0.8,2.55 -3.14,3.77 -5.53,4.51c-4.19,1.2 -9,1.55 -13.18,0.09c-3.84,-1.36 -7.24,-4.25 -9.15,-7.86c-2.1,-3.96 -1.9,-8.81 -0.37,-12.94c0.95,-2.53 3.16,-3.5 5.54,-4.33z"/>
   <path id="svg_29" data-index="30" fill="#000000" d="m77.27324,84.18473c1.43,-0.13 2.75,-0.43 3.97,0.55c1.22,1.33 0.98,2.39 -0.06,3.76c-2.43,0.02 -4.21,-1.89 -3.91,-4.31z"/>
   <path id="svg_33" data-index="34" fill="#000000" d="m62.78324,86.24473c0.34,5.07 0.31,9.86 2.27,14.66c2.71,7.25 8.6,12.8 16,15.04c7.96,2.53 15.24,1.44 23.34,1.75c-1.53,3.13 -4.33,2.6 -7.3,2.83c-9.68,-0.3 -18.81,-0.47 -26.65,-6.95c-8.04,-6.02 -10.93,-15.89 -10.14,-25.59c0.37,-1.62 0.84,-1.91 2.48,-1.74z"/>
   <path id="svg_35" data-index="36" fill="#000000" d="m123.17324,88.19473c1.46,0.37 2.76,0.69 3.33,2.25c0.79,3.37 -1.43,7.96 -5.41,7.65c-3.85,-0.11 -5.6,-4.61 -4.6,-7.84c1.88,-2.07 2.9,0.09 4.77,0.9c0.62,-1 1.26,-1.98 1.91,-2.96z"/>
   <path id="svg_41" data-index="42" fill="#000000" d="m93.87324,96.83473c-1.76,0.88 -3.55,1.71 -5.34,2.53c-0.34,-1.02 -0.69,-2.04 -1.02,-3.07c2.65,-1.5 4.19,-2.13 6.36,0.54z"/>
   <path id="svg_43" data-index="45" fill="#e9d18b" d="m96.59324,129.65473c5.16,-1.15 10.52,-0.52 14.38,3.37c2.23,2.26 2.69,5.42 1.79,8.4c-1.52,5.15 -4.64,9.94 -8.37,13.77c-12.06,12.4 -25.63,21.43 -39.55,31.45c-1.24,0.85 -2.55,1.59 -3.87,2.3c0.76,-6.93 2.45,-13.75 3.62,-20.63c-6.68,-1.24 -13.34,-2.54 -19.98,-3.95c2.47,-2.55 4.8,-5.14 7.67,-7.26c8.19,-6.19 16.47,-12.26 24.91,-18.1c5.82,-4.07 12.45,-7.7 19.4,-9.35z"/>
  </g>
 </g>

</svg>