<svg width="653" height="303" xmlns="http://www.w3.org/2000/svg" version="1.1">

 <g>
  <title>Layer 1</title>
  <path id="svg_1" data-index="1" fill="#000000" d="m556.29,0l4.72,0c1.8,0.42 3.74,0.56 4.9,2.18c1.16,1.48 0.46,3.17 0.05,4.77c-1.58,5.36 -3.76,10.57 -5.14,15.98c-0.47,7.32 -0.21,14.72 -0.51,22.06c9.37,2.79 19.5,6.61 27.06,12.95c1.29,-2.34 2.1,-3.08 4.63,-3.94c8.41,-2.82 17.12,-5.14 25.96,-6.03c2.98,-0.24 5.32,-1.94 8.1,-0.07c9.37,6.36 16.29,16.64 19.72,27.35c3.4,10.33 5.77,21 7.22,31.77l0,2.13c-3.16,3.66 -7.55,2.59 -11.95,3.42c-9.32,1.32 -17.54,3.35 -27.07,1.33c-2,-0.46 -3.51,-1.6 -5.18,-2.72c-4.22,15.24 -17.22,26.13 -31.86,30.94c-1.99,0.83 -3.11,0 -4.85,-0.85c-1.14,7.77 -5.84,13.92 -11.22,19.33c3.77,13.06 3.06,26.59 -2.1,39.15c-6.89,17.03 -20.5,30.77 -34.88,41.76c-4.16,2.85 -8.05,6.61 -12.67,8.58c-0.77,-3.43 -1.65,-6.84 -2.56,-10.25c2.54,-1.6 5.05,-3.24 7.45,-5.06c13.21,-9.67 25.98,-21.68 32.88,-36.79c4.44,-9.65 5.78,-19.65 3.88,-30.13c-9.69,8.15 -20.1,15.29 -30.35,22.68c-2.3,1.61 -4.82,2.52 -7.42,3.5c1.33,-7.39 2.8,-14.75 4.15,-22.14c-3.31,-0.61 -6.61,-1.21 -9.9,-1.86c-3.84,-0.78 -7.71,-1.42 -11.57,-2.05c3,-3.89 6.32,-7.36 10.25,-10.33c9.26,-6.95 18.65,-13.77 28.21,-20.29c-9.8,-10.7 -21.76,-19.41 -34.25,-26.69c-2.71,12.71 -5.5,25.41 -8.44,38.07c-4.11,-6.83 -8.16,-13.7 -12.33,-20.49c-5.63,2.9 -11.2,5.93 -16.87,8.75c-0.15,-1.13 -0.28,-2.27 -0.41,-3.4c-0.41,-5.05 -0.15,-10.13 0.68,-15.13c1.35,-7.94 2.88,-15.85 4.77,-23.69c-3,-1.27 -6.02,-2.43 -9.11,-3.47c-2.26,-3.01 -4.98,-5.58 -8.45,-7.15c-5.83,-2.66 -11.98,-2.76 -18.24,-1.94l-0.5,0.06c-27.08,-7.88 -55.15,-13.06 -83.16,-16.24c-40.11,-4.49 -80.68,-4.97 -120.9,-1.56c-29.44,2.51 -58.67,7.23 -87.29,14.56c-8,1.96 -15.85,4.61 -23.75,6.92c-0.62,-2.59 -1.24,-5.19 -1.87,-7.78c2.41,0.05 4.81,0.09 7.21,0.13c-0.19,-1.78 -0.38,-3.55 -0.62,-5.33c4.74,-0.95 9.4,-2.38 14.07,-3.64c40.99,-10.79 82.89,-16.19 125.22,-17.52c41.55,-1.21 83,1.35 123.95,8.61c29.45,5.28 58.92,13.02 86.64,24.38c2.23,-4.7 4.76,-9.99 8.96,-13.25c3.89,-3.08 9.41,-3.26 14.06,-2.19c0.37,-4.42 3.08,-7.07 5.92,-10.13c-0.79,-9.11 -1.63,-18.22 -2.42,-27.34c-0.24,-4.03 -2.99,-6.91 -1.96,-10.9c0.95,-4.06 4.4,-6.32 7.99,-7.88c10.98,-4.76 22.92,-9.41 34.83,-10.94c5.46,-0.83 10.82,-1.69 16.32,-2.19z"/>
  <path id="svg_2" data-index="3" fill="#e9d18b" d="m556.01,1.98c3.25,-0.15 6.19,-0.51 8.88,1.7c-4.34,13.93 -9.33,27.65 -13.61,41.6c-1.32,4.02 -1.38,8.84 -3.42,12.53c-1.38,2.3 -3.28,1.09 -5.36,0.79c-7.68,-1.51 -15,-6.39 -21.62,-10.46c-7.33,-4.51 -13.44,-10.56 -18.7,-17.32c-2.04,-2.87 -4.32,-6.89 -2.77,-10.45c1.43,-3.29 4.74,-4.7 7.81,-6.05c10.05,-4.24 20.91,-8.52 31.75,-10.04c5.65,-0.84 11.34,-1.86 17.04,-2.3z"/>
  <path id="svg_3" data-index="4" fill="#e9d18b" d="m558.59,29.03c0,4.91 -0.13,9.82 -0.22,14.73c-1.59,0.27 -3.19,0.53 -4.79,0.78c1.25,-4.3 2.71,-8.57 4.11,-12.83c0.3,-0.89 0.6,-1.79 0.9,-2.68z"/>
  <path id="svg_4" data-index="5" fill="#e9d18b" d="m501.27,33.57c5.04,4.65 9.3,9.89 14.97,13.86c-4.07,3.34 -8.58,5.9 -13.03,8.67c-0.58,-7.52 -1.38,-15.01 -1.94,-22.53z"/>
  <path id="svg_5" data-index="6" fill="#e9d18b" d="m559.26,46.7c6.18,1.68 12.36,4.06 18.08,6.96c5.93,2.94 11.18,7.51 15.81,12.19c3.99,3.97 6.45,8.74 9.45,13.56c3.09,4.92 4.57,10.84 5.24,16.57c0.65,7.62 -0.18,15.2 -3.83,22.02c-6.05,11.53 -17.11,19.07 -29.33,22.87c-2.34,-3.02 -3.82,-7.54 -7.1,-9.49c-4.87,-3.2 -10.03,-2.79 -15.55,-2c-3.31,0.41 -5.97,2.03 -9.08,3.02c-2.48,0.38 -4.15,-3.12 -5.71,-4.64c-6.06,-6.69 -12.54,-14.12 -20.51,-18.51c-3.73,-2.58 -7.39,-5.3 -11.06,-7.96c-1.59,-1.13 -1.49,-2.5 -1.36,-4.26c0.49,-5.47 0.65,-11.11 0.01,-16.57c-0.75,-4.74 -3.96,-7.85 -6.45,-11.65c-0.47,-1.58 1.2,-3.59 2.09,-4.83c3.76,-4.54 8.44,-8.38 13.22,-11.81c2.29,-1.46 4.65,-3.22 7.45,-1.79c6.8,3.71 12.53,8 20.3,9.78c2.8,0.63 6.45,1.96 8.74,-0.5c2.33,-3.59 2.22,-8.7 4.66,-12.33c1.12,-1.79 3.28,-0.93 4.93,-0.63z"/>
  <path id="svg_6" data-index="7" fill="#e9d18b" d="m625.9,50.11c7.73,5.76 13.65,14.07 17.05,23.05c4.16,11.43 6.51,23.18 8.34,35.17c-2,1.44 -3.84,1.75 -6.27,1.91c-8.93,0.64 -16.98,3.29 -26.05,2.46c-3.08,-0.22 -7.45,-0.66 -9,-3.8c-0.51,-2.54 -0.16,-5.32 0,-7.9c1.15,-12.84 2.64,-25.33 6.27,-37.73c1.28,-4.31 1.87,-9.77 4.6,-13.42c1.64,-1.79 3.39,-0.9 5.06,0.26z"/>
  <path id="svg_7" data-index="8" fill="#e9d18b" d="m618.33,49.76c-2.41,5.43 -3.34,11.09 -4.96,16.76c-1.94,6.89 -2.92,13.86 -3.96,20.92c-4.26,-7.56 -8.64,-15.13 -13.62,-22.25c-1.89,-2.73 -4.24,-4.97 -6.56,-7.33c1.56,-1.15 3.14,-2.09 5.01,-2.63c7.89,-2.46 15.87,-4.53 24.09,-5.47z"/>
  <path id="svg_8" data-index="9" fill="#000000" d="m522.08,55.59c-0.55,3.68 -1.43,7.58 0.18,11.12c1.25,2.83 3.79,4.53 6.69,5.37c5.57,1.76 10.77,-0.23 16.5,1.1c-5.26,2.78 -11.59,2.9 -17.27,1.56c-3.92,-0.92 -7.1,-3.51 -8.71,-7.21c-1.45,-3.2 -1.2,-6.41 -0.82,-9.8c1.15,-2.27 0.52,-2.69 3.43,-2.14z"/>
  <path id="svg_9" data-index="10" fill="#fbf312" d="m77.94,61.19c14.75,0.77 29.53,1.14 44.26,2.14c-0.05,1.02 -0.09,2.05 -0.13,3.07c-0.09,2.22 0.33,4.39 0.64,6.59c0.24,1.78 0.43,3.55 0.62,5.33c-2.4,-0.04 -4.8,-0.08 -7.21,-0.13c0.63,2.59 1.25,5.19 1.87,7.78c1.46,7.36 4.84,15.65 3.62,23.05c-1.11,8.35 -6.66,15.8 -14.35,19.24c-4,1.85 -8.29,2.32 -12.66,2.18c-10.33,-1.31 -19.9,-6.45 -24.45,-16.18c5.16,-3.39 10.39,-6.67 15.57,-10.04c2.56,4.97 8.71,8.04 13.47,3.97c4.39,-4.24 1.31,-10.66 0.38,-15.69c-0.81,-3.45 -1.65,-6.83 -2.3,-10.32c-0.28,-1.61 -0.61,-3.21 -0.94,-4.81c-1.5,0.03 -2.99,0.06 -4.48,0.08c-5.48,0 -10.96,-0.36 -16.44,-0.46c0.81,-5.27 1.67,-10.54 2.53,-15.8z"/>
  <path id="svg_10" data-index="11" fill="#c01621" d="m349.93,66.05c28.01,3.18 56.08,8.36 83.16,16.24c-5.01,1.34 -9.56,3.61 -13.19,7.37c-0.97,-0.86 -1.94,-1.73 -2.9,-2.6c-0.97,0.53 -1.92,1.07 -2.88,1.62c-6.47,-4.9 -13.87,-8.12 -22.13,-7.78c-6.2,0.24 -11.96,2.86 -16.34,7.22c-1.15,0.19 -2.3,0.38 -3.45,0.59c-6.45,-4.97 -13.94,-8.16 -22.21,-7.81c-5.72,0.24 -11.08,2.53 -15.36,6.3c-5.15,-1.57 -9.9,-2.98 -15.38,-2.42c-9.77,-4.53 -21.56,-4.14 -30.47,2.16c-4.33,-1.5 -8.66,-1.54 -13.18,-1.29c-2.27,-2.01 -4.74,-3.62 -7.81,-4.07c-7.3,-1.01 -14.4,1.27 -20.76,4.71c-0.03,-1.47 -0.05,-2.94 -0.07,-4.41c-5.58,0.02 -11.15,0.21 -16.72,0.25c-0.01,1.38 -0.01,2.77 -0.02,4.15c-1.16,0.24 -2.33,0.49 -3.49,0.73c0,-1.64 -0.01,-3.29 -0.01,-4.93c-5.87,-0.01 -11.73,-0.01 -17.6,-0.01c-0.02,2.57 -0.03,5.14 -0.03,7.71c-2.16,-1.4 -4.4,-3.04 -7.06,-3.25c-2.87,0.25 -5.74,1.46 -8.46,2.37c0,-2.33 0,-4.67 -0.01,-7c-5.77,-0.03 -11.55,-0.03 -17.33,-0.01c-0.02,2.51 -0.03,5.02 -0.06,7.53c-2.96,-1.08 -4.21,-1.31 -7.26,-0.08c-6.62,-7.27 -16.39,-8.62 -25.67,-6.91c-1.04,0.25 -2.07,0.51 -3.1,0.8c0.53,-1.39 1.07,-2.79 1.6,-4.18c28.62,-7.33 57.85,-12.05 87.29,-14.56c40.22,-3.41 80.79,-2.93 120.9,1.56z"/>
  <path id="svg_12" data-index="13" fill="#e9d18b" d="m493.99,70.97c3.14,0.73 4.95,3.24 5.8,6.21c3,10.32 2.72,21.12 0.6,31.58c-2.39,11.66 -4.98,23.27 -7.65,34.87c-3.63,-5.97 -7.19,-11.98 -10.76,-17.97c-5.28,2.73 -10.69,5.29 -15.83,8.25c0.25,-6.86 -0.35,-13.5 1.46,-20.22c2.59,-10.52 3.51,-21.53 8.16,-30.91c1.65,-3.35 3.74,-6.98 6.64,-9.4c3,-2.66 7.79,-3.13 11.58,-2.41z"/>
  <path id="svg_13" data-index="14" fill="#000000" d="m579.43,76.54c5.19,-2.05 11.27,-1.25 15.32,2.7c4.49,4.24 5.52,10.81 3.82,16.58c-2.45,8.88 -10.96,16.87 -20.62,16c-6.81,-0.3 -12.15,-6.14 -12.7,-12.78c-1.16,-9.68 5.27,-19.06 14.18,-22.5z"/>
  <path id="svg_14" data-index="15" fill="#ffffff" d="m582.43,77.51c5.88,-1.24 11.55,1.6 13.89,7.14c3.53,8.3 -1.4,18.5 -8.71,23.02c-4.55,2.81 -10.28,3.55 -14.98,0.6c-4.19,-2.68 -5.91,-7.54 -5.71,-12.36c0.55,-8.5 7.16,-16.52 15.51,-18.4z"/>
  <path id="svg_16" data-index="17" fill="#000000" d="m534.49,78.66c7.08,-2.08 15.33,0.01 20.26,5.6c3.29,3.51 4.49,9.08 5.05,13.72c0.38,3.58 -0.57,7.07 -3.75,9.07c-8.63,5.32 -22,3.35 -27.83,-5.28c-3.57,-4.93 -3.56,-11.74 -1.68,-17.31c1.6,-2.85 4.88,-4.86 7.95,-5.8z"/>
  <path id="svg_17" data-index="18" fill="#8a100b" d="m141.74,79.05c-0.53,1.39 -1.07,2.79 -1.6,4.18c-6.71,2.37 -12.39,7.32 -14.56,14.24c-3,10.42 1.08,21.83 9.66,28.34c-3.49,3.57 -6.59,7.03 -11.31,9.01c-4.61,2.27 -9.89,1.74 -14.9,1.62c-5.52,-0.27 -10.13,-2.7 -14.43,-6c4.37,0.14 8.66,-0.33 12.66,-2.18c7.69,-3.44 13.24,-10.89 14.35,-19.24c1.22,-7.4 -2.16,-15.69 -3.62,-23.05c7.9,-2.31 15.75,-4.96 23.75,-6.92z"/>
  <path id="svg_18" data-index="19" fill="#fbf312" d="m267.79,81.58c3.07,0.45 5.54,2.06 7.81,4.07c2.66,3.35 3.72,7.09 3.75,11.34c0.03,6.94 -0.24,13.88 -0.23,20.82c-0.13,4.09 -0.28,8.19 -0.32,12.29c-5.62,0.06 -11.25,0.05 -16.87,-0.01c-0.7,-8.22 0.22,-16.57 -0.33,-24.81c-0.3,-2.74 -0.95,-5.85 -3.42,-7.48c-2.89,-1.78 -7.56,-1.01 -9.61,1.77c-1.76,2.46 -1.46,5.57 -1.51,8.43c0.12,7.39 0.04,14.77 0.13,22.16c-5.65,0.01 -11.3,-0.01 -16.95,-0.03c0,-14.62 -0.01,-29.23 -0.02,-43.85c0.01,-1.38 0.01,-2.77 0.02,-4.15c5.57,-0.04 11.14,-0.23 16.72,-0.25c0.02,1.47 0.04,2.94 0.07,4.41c6.36,-3.44 13.46,-5.72 20.76,-4.71z"/>
  <path id="svg_19" data-index="20" fill="#fbf312" d="m349.99,80.9c8.27,-0.35 15.76,2.84 22.21,7.81c-2.32,3.25 -4.38,6.69 -6.61,10c-4.13,-1.99 -7.91,-3.9 -12.58,-4.23c-2.78,-0.11 -5.97,0.02 -7.8,2.44c0.46,1.95 2.05,2.15 3.74,2.39c4.22,0.38 8.23,0.12 12.37,1.34c4.03,1.14 7.93,3.38 9.74,7.33c2.24,5.15 0.76,11.06 -2.93,15.13c-3.2,3.69 -7.39,5.65 -11.94,7.19c-6.79,1.27 -13.46,0.85 -19.88,-1.79c-3.07,-1.35 -5.63,-3.23 -8.09,-5.49c3.15,-3.43 6.29,-6.86 9.45,-10.26c4.09,2.64 8.42,4.39 13.39,3.64c1.96,-0.34 4.74,-1.17 4.76,-3.61c-2.14,-1.8 -5.22,-1.12 -7.84,-1.32c-6.52,0.04 -13.46,-3.57 -16.35,-9.58c-0.55,-1.23 -0.92,-1.27 -2.07,-1.64c0.33,2.97 0.57,5.93 0.53,8.92c-11.1,0.18 -22.21,0.14 -33.3,0.41c1.46,2.5 2.62,4.98 5.38,6.29c4.9,1.73 10.16,0.39 13.59,-3.51c4.47,1.15 8.91,2.4 13.36,3.64c-2.73,7.81 -9.59,12.34 -17.35,14.22c-5.8,1.05 -11.39,0.53 -16.75,-1.95c-9.35,-4.73 -15.34,-14.75 -14.63,-25.28c0.22,-6.44 3.36,-12.11 8.39,-16.05c8.91,-6.3 20.7,-6.69 30.47,-2.16c4.91,3.17 8.64,7.74 9.72,13.61c0.5,0.04 1.01,0.06 1.51,0.09c-0.6,-4.64 1.01,-8.03 4.15,-11.28c4.28,-3.77 9.64,-6.06 15.36,-6.3z"/>
  <path id="svg_20" data-index="21" fill="#fbf312" d="m391.99,80.9c8.26,-0.34 15.66,2.88 22.13,7.78c-2.31,3.26 -4.36,6.72 -6.61,10.02c-4.41,-2.14 -8.48,-4.15 -13.51,-4.26c-2.55,0.04 -5.18,0.25 -6.82,2.47c0.15,1.92 2.24,2.2 3.77,2.4c4.5,0.38 8.73,0.12 13.11,1.58c4.02,1.3 7.72,3.74 9.24,7.85c1.4,4.23 0.68,9.03 -1.9,12.66c-3.31,4.73 -8.24,7.4 -13.7,8.92c-5.96,1.19 -11.63,0.83 -17.4,-1.01c-3.97,-1.42 -7.08,-3.43 -10.14,-6.29c3.15,-3.42 6.3,-6.84 9.45,-10.25c4.09,2.68 8.46,4.42 13.45,3.63c1.96,-0.37 4.6,-1.18 4.7,-3.57c-2.07,-1.84 -5.19,-1.15 -7.78,-1.36c-7.04,0.14 -14.93,-4.33 -17.22,-11.23c-1.39,-4.44 0.01,-8.65 2.89,-12.12c4.38,-4.36 10.14,-6.98 16.34,-7.22z"/>
  <path id="svg_21" data-index="22" fill="#e9d18b" d="m534.4,81.44c5.86,-1.99 12.45,-1.18 17.06,3.11c4.78,4.36 6.13,11.22 5.63,17.42c-0.8,2.55 -3.14,3.77 -5.53,4.51c-4.19,1.2 -9,1.55 -13.18,0.09c-3.84,-1.36 -7.24,-4.25 -9.15,-7.86c-2.1,-3.96 -1.9,-8.81 -0.37,-12.94c0.95,-2.53 3.16,-3.5 5.54,-4.33z"/>
  <path id="svg_22" data-index="23" fill="#fbf312" d="m143.24,82.43c9.28,-1.71 19.05,-0.36 25.67,6.91c4.71,5.73 5.68,12.62 5.41,19.82c-11.1,0.2 -22.2,0.13 -33.29,0.45c1.65,2.69 2.84,5.32 6.01,6.49c4.96,1.31 9.54,0.04 13,-3.74c4.47,1.16 8.92,2.4 13.36,3.65c-2.81,7.82 -9.71,12.42 -17.55,14.26c-7.47,1.31 -14.43,-0.03 -20.61,-4.46c-8.58,-6.51 -12.66,-17.92 -9.66,-28.34c2.17,-6.92 7.85,-11.87 14.56,-14.24c1.03,-0.29 2.06,-0.55 3.1,-0.8z"/>
  <path id="svg_23" data-index="24" fill="#fbf312" d="m176.23,81.89c5.78,-0.02 11.56,-0.02 17.33,0.01c0.01,2.33 0.01,4.67 0.01,7c-0.03,5.04 -0.06,10.07 -0.11,15.11c0.06,2.46 -0.05,4.98 1.53,7.03c1.95,2.61 6.04,3.06 8.9,1.93c3.09,-1.31 4.73,-4.81 4.99,-8c0.34,-5.04 0.1,-10.13 0.21,-15.19c0,-2.57 0.01,-5.14 0.03,-7.71c5.87,0 11.73,0 17.6,0.01c0,1.64 0.01,3.29 0.01,4.93c0.01,14.22 -0.02,28.44 -0.03,42.65c-5.91,0.01 -11.83,0 -17.75,0c0.01,-1.38 0.03,-2.76 0.05,-4.14c-3.52,3.01 -6.93,4.7 -11.55,5.31c-5.18,0.26 -10.07,-0.47 -14.36,-3.55c-5.41,-4.74 -6.92,-11.37 -7.1,-18.28c-0.03,-6.52 0.14,-13.05 0.18,-19.58c0.03,-2.51 0.04,-5.02 0.06,-7.53z"/>
  <path id="svg_24" data-index="25" fill="#fbf312" d="m433.09,82.29l0.5,-0.06c6.26,-0.82 12.41,-0.72 18.24,1.94c3.47,1.57 6.19,4.14 8.45,7.15c3.36,5.47 4.1,11.54 3.87,17.85c-11.08,0.18 -22.18,0.14 -33.26,0.42c1.44,2.48 2.59,4.91 5.3,6.24c4.86,1.8 10.22,0.44 13.64,-3.46c4.47,1.13 8.93,2.39 13.39,3.63c-2.75,7.79 -9.37,12.03 -16.99,14.24c-7.69,1.31 -15,0.14 -21.32,-4.59c-10.88,-8.17 -14.6,-25.42 -5.01,-35.99c3.63,-3.76 8.18,-6.03 13.19,-7.37z"/>
  <path id="svg_25" data-index="26" fill="#000000" d="m94.98,83.08l2.29,-0.9c0.65,3.49 1.49,6.87 2.3,10.32c-18.31,7.09 -36.62,15.96 -52.63,27.41c-12.67,9.09 -25.12,20.82 -32.04,34.99c-5.38,10.76 -6.94,23.2 -3.66,34.84c3.71,13.46 12.64,24.94 22.73,34.3c5.7,5.27 11.86,10 18.32,14.3c0.12,4.05 0.24,8.11 0.37,12.16c-17.21,-10.75 -34.35,-24.86 -44.38,-42.79c-4.71,-8.38 -7.56,-17.49 -8.28,-27.1l0,-6.89c1.49,-19.56 11.94,-35.69 25.69,-49.03c19.25,-18.52 44.64,-31.8 69.29,-41.61z"/>
  <path id="svg_26" data-index="27" fill="#8a100b" d="m334.63,87.2c-3.14,3.25 -4.75,6.64 -4.15,11.28c-0.5,-0.03 -1.01,-0.05 -1.51,-0.09c-1.08,-5.87 -4.81,-10.44 -9.72,-13.61c5.48,-0.56 10.23,0.85 15.38,2.42z"/>
  <path id="svg_27" data-index="28" fill="#8a100b" d="m288.78,86.94c-5.03,3.94 -8.17,9.61 -8.39,16.05c-0.71,10.53 5.28,20.55 14.63,25.28c-1.63,1.8 -3.25,3.94 -5.54,4.92c-2.97,1.23 -6.66,0.09 -8.32,-2.7c-2.43,-3.39 -1.78,-8.65 -2.04,-12.68c-0.01,-6.94 0.26,-13.88 0.23,-20.82c-0.03,-4.25 -1.09,-7.99 -3.75,-11.34c4.52,-0.25 8.85,-0.21 13.18,1.29z"/>
  <path id="svg_28" data-index="29" fill="#8a100b" d="m230.22,86.28c0.01,14.62 0.02,29.23 0.02,43.85c5.65,0.02 11.3,0.04 16.95,0.03c-0.09,-7.39 -0.01,-14.77 -0.13,-22.16c0.05,-2.86 -0.25,-5.97 1.51,-8.43c2.05,-2.78 6.72,-3.55 9.61,-1.77c2.47,1.63 3.12,4.74 3.42,7.48c0.55,8.24 -0.37,16.59 0.33,24.81c0.13,1.06 0.32,2.12 0.38,3.19c-2.63,2.91 -5.77,2.25 -9.32,2.32c-4.19,-0.04 -7.78,-1.4 -11.98,-0.59c-6.72,1.18 -13.3,-0.1 -20.01,0.82c-4.59,0.67 -9.59,1.13 -14.19,0.43c-3.9,-0.66 -6.46,-2.98 -9.36,-5.43c4.62,-0.61 8.03,-2.3 11.55,-5.31c-0.02,1.38 -0.04,2.76 -0.05,4.14c5.92,0 11.84,0.01 17.75,0c0.01,-14.21 0.04,-28.43 0.03,-42.65c1.16,-0.24 2.33,-0.49 3.49,-0.73z"/>
  <path id="svg_29" data-index="30" fill="#000000" d="m534.18,86.29c1.43,-0.13 2.75,-0.43 3.97,0.55c1.22,1.33 0.98,2.39 -0.06,3.76c-2.43,0.02 -4.21,-1.89 -3.91,-4.31z"/>
  <path id="svg_30" data-index="31" fill="#8a100b" d="m202.03,86.53c2.66,0.21 4.9,1.85 7.06,3.25c-0.11,5.06 0.13,10.15 -0.21,15.19c-0.26,3.19 -1.9,6.69 -4.99,8c-2.86,1.13 -6.95,0.68 -8.9,-1.93c-1.58,-2.05 -1.47,-4.57 -1.53,-7.03c0.05,-5.04 0.08,-10.07 0.11,-15.11c2.72,-0.91 5.59,-2.12 8.46,-2.37z"/>
  <path id="svg_31" data-index="32" fill="#8a100b" d="m372.2,88.71c1.15,-0.21 2.3,-0.4 3.45,-0.59c-2.88,3.47 -4.28,7.68 -2.89,12.12c2.29,6.9 10.18,11.37 17.22,11.23c2.59,0.21 5.71,-0.48 7.78,1.36c-0.1,2.39 -2.74,3.2 -4.7,3.57c-4.99,0.79 -9.36,-0.95 -13.45,-3.63c-3.15,3.41 -6.3,6.83 -9.45,10.25c3.06,2.86 6.17,4.87 10.14,6.29c-2.98,2.07 -5.6,4.09 -9.36,4.38c-3.87,0.27 -7.85,0.31 -11.71,-0.05c-2.05,-0.18 -2.78,-1.42 -3.04,-3.34c4.55,-1.54 8.74,-3.5 11.94,-7.19c3.69,-4.07 5.17,-9.98 2.93,-15.13c-1.81,-3.95 -5.71,-6.19 -9.74,-7.33c-4.14,-1.22 -8.15,-0.96 -12.37,-1.34c-1.69,-0.24 -3.28,-0.44 -3.74,-2.39c1.83,-2.42 5.02,-2.55 7.8,-2.44c4.67,0.33 8.45,2.24 12.58,4.23c2.23,-3.31 4.29,-6.75 6.61,-10z"/>
  <path id="svg_32" data-index="33" fill="#8a100b" d="m414.12,88.68c0.96,-0.55 1.91,-1.09 2.88,-1.62c0.96,0.87 1.93,1.74 2.9,2.6c-9.59,10.57 -5.87,27.82 5.01,35.99c-4.95,7.17 -13.12,8.94 -21.37,8.13c-2.86,0.09 -4.01,-1.64 -5.84,-3.46c5.46,-1.52 10.39,-4.19 13.7,-8.92c2.58,-3.63 3.3,-8.43 1.9,-12.66c-1.52,-4.11 -5.22,-6.55 -9.24,-7.85c-4.38,-1.46 -8.61,-1.2 -13.11,-1.58c-1.53,-0.2 -3.62,-0.48 -3.77,-2.4c1.64,-2.22 4.27,-2.43 6.82,-2.47c5.03,0.11 9.1,2.12 13.51,4.26c2.25,-3.3 4.3,-6.76 6.61,-10.02z"/>
  <path id="svg_33" data-index="34" fill="#000000" d="m519.69,88.35c0.34,5.07 0.31,9.86 2.27,14.66c2.71,7.25 8.6,12.8 16,15.04c7.96,2.53 15.24,1.44 23.34,1.75c-1.53,3.13 -4.33,2.6 -7.3,2.83c-9.68,-0.3 -18.81,-0.47 -26.65,-6.95c-8.04,-6.02 -10.93,-15.89 -10.14,-25.59c0.37,-1.62 0.84,-1.91 2.48,-1.74z"/>
  <path id="svg_34" data-index="35" fill="#8a100b" d="m176.17,89.42c-0.04,6.53 -0.21,13.06 -0.18,19.58c0.18,6.91 1.69,13.54 7.1,18.28c-5.01,6.44 -13.52,8.66 -21.29,6.92c-2.55,-0.58 -4.09,-2.26 -5.95,-3.93c7.84,-1.84 14.74,-6.44 17.55,-14.26c-4.44,-1.25 -8.89,-2.49 -13.36,-3.65c-3.46,3.78 -8.04,5.05 -13,3.74c-3.17,-1.17 -4.36,-3.8 -6.01,-6.49c11.09,-0.32 22.19,-0.25 33.29,-0.45c0.27,-7.2 -0.7,-14.09 -5.41,-19.82c3.05,-1.23 4.3,-1 7.26,0.08z"/>
  <path id="svg_35" data-index="36" fill="#000000" d="m580.08,90.3c1.46,0.37 2.76,0.69 3.33,2.25c0.79,3.37 -1.43,7.96 -5.41,7.65c-3.85,-0.11 -5.6,-4.61 -4.6,-7.84c1.88,-2.07 2.9,0.09 4.77,0.9c0.62,-1 1.26,-1.98 1.91,-2.96z"/>
  <path id="svg_36" data-index="37" fill="#8a100b" d="m460.28,91.32c3.09,1.04 6.11,2.2 9.11,3.47c-1.89,7.84 -3.42,15.75 -4.77,23.69c-0.83,5 -1.09,10.08 -0.68,15.13c-5.16,1.42 -10.39,1.72 -15.37,-0.53c-1.29,-0.46 -2.06,-1.41 -2.34,-2.84c7.62,-2.21 14.24,-6.45 16.99,-14.24c-4.46,-1.24 -8.92,-2.5 -13.39,-3.63c-3.42,3.9 -8.78,5.26 -13.64,3.46c-2.71,-1.33 -3.86,-3.76 -5.3,-6.24c11.08,-0.28 22.18,-0.24 33.26,-0.42c0.23,-6.31 -0.51,-12.38 -3.87,-17.85z"/>
  <path id="svg_37" data-index="38" fill="#c01621" d="m99.57,92.5c0.93,5.03 4.01,11.45 -0.38,15.69c-4.76,4.07 -10.91,1 -13.47,-3.97c-5.18,3.37 -10.41,6.65 -15.57,10.04c4.55,9.73 14.12,14.87 24.45,16.18c4.3,3.3 8.91,5.73 14.43,6c5.01,0.12 10.29,0.65 14.9,-1.62c4.72,-1.98 7.82,-5.44 11.31,-9.01c6.18,4.43 13.14,5.77 20.61,4.46c1.86,1.67 3.4,3.35 5.95,3.93c7.77,1.74 16.28,-0.48 21.29,-6.92c4.29,3.08 9.18,3.81 14.36,3.55c2.9,2.45 5.46,4.77 9.36,5.43c4.6,0.7 9.6,0.24 14.19,-0.43c6.71,-0.92 13.29,0.36 20.01,-0.82c4.2,-0.81 7.79,0.55 11.98,0.59c3.55,-0.07 6.69,0.59 9.32,-2.32c-0.06,-1.07 -0.25,-2.13 -0.38,-3.19c5.62,0.06 11.25,0.07 16.87,0.01c0.04,-4.1 0.19,-8.2 0.32,-12.29c0.26,4.03 -0.39,9.29 2.04,12.68c1.66,2.79 5.35,3.93 8.32,2.7c2.29,-0.98 3.91,-3.12 5.54,-4.92c5.36,2.48 10.95,3 16.75,1.95c1.77,1.44 3.06,3.38 5.52,3.43c7.02,0.21 14.49,1.56 19.02,-5.14c6.42,2.64 13.09,3.06 19.88,1.79c0.26,1.92 0.99,3.16 3.04,3.34c3.86,0.36 7.84,0.32 11.71,0.05c3.76,-0.29 6.38,-2.31 9.36,-4.38c5.77,1.84 11.44,2.2 17.4,1.01c1.83,1.82 2.98,3.55 5.84,3.46c8.25,0.81 16.42,-0.96 21.37,-8.13c6.32,4.73 13.63,5.9 21.32,4.59c0.28,1.43 1.05,2.38 2.34,2.84c4.98,2.25 10.21,1.95 15.37,0.53c0.13,1.13 0.26,2.27 0.41,3.4c5.67,-2.82 11.24,-5.85 16.87,-8.75c4.17,6.79 8.22,13.66 12.33,20.49c2.94,-12.66 5.73,-25.36 8.44,-38.07c12.49,7.28 24.45,15.99 34.25,26.69c-9.56,6.52 -18.95,13.34 -28.21,20.29c-2.33,-1.41 -4.76,-3.35 -7.42,-4.07c-3.57,-0.28 -7.31,0.84 -10.84,1.34c0,-2.65 -0.01,-5.31 -0.02,-7.97c-10.01,2.83 -20.04,5.64 -30.02,8.6c0.03,12.11 0,24.22 -0.1,36.32c-8.46,-4.03 -16.48,-7.62 -26.11,-7.17c-16.27,-5.54 -35.74,-3.94 -49.07,7.64c-9.23,-5.97 -20.75,-10.18 -31.85,-9.59c-7.78,-2.36 -15.78,-3.41 -23.85,-1.94c-6.21,1.11 -12.05,3.7 -17.17,7.36c-5.22,-2.04 -9.69,-3.19 -15.36,-2.42c-4.07,-2.42 -8.42,-4.14 -13.21,-4.24c-7.86,-0.18 -15.03,2.86 -21.15,7.61c0,-2.28 0,-4.56 -0.01,-6.83c-9.79,0.03 -19.6,-0.09 -29.39,0.04c-0.12,4.79 0.02,9.6 -0.01,14.4c-3.74,-2.9 -8.03,-5.63 -12.54,-7.11c-1.27,-0.48 -2.46,-0.16 -3.59,0.94c-17.19,-13.05 -43.6,-13.26 -60.71,0.06c1.03,-5.97 -1.85,-10.28 -4.87,-15.07c-4.49,-6.64 -11.15,-11.86 -18.19,-15.58c-2.18,-1.09 -2.8,-0.83 -4.88,0.4c-11.36,-9.32 -26.04,-13.83 -40.67,-13.22c-12.75,0.53 -25.43,4.67 -36.78,10.36c-0.58,2.35 -0.12,5.06 -0.12,7.48c0.75,24.44 1.48,48.89 2.19,73.34c-6.46,-4.3 -12.62,-9.03 -18.32,-14.3c-10.09,-9.36 -19.02,-20.84 -22.73,-34.3c-3.28,-11.64 -1.72,-24.08 3.66,-34.84c6.92,-14.17 19.37,-25.9 32.04,-34.99c16.01,-11.45 34.32,-20.32 52.63,-27.41z"/>
  <path id="svg_38" data-index="39" fill="#8a100b" d="m146.41,93.47c2.56,-0.71 5.95,-0.75 8.16,0.94c1.33,0.91 1.98,2.72 2.74,4.12c-5.39,0.11 -10.79,0.02 -16.17,-0.1c1.51,-2.1 2.62,-4.14 5.27,-4.96z"/>
  <path id="svg_39" data-index="40" fill="#8a100b" d="m309.87,94.11c1.68,0.93 2.31,2.81 3.19,4.41c-5.4,0.12 -10.81,0.04 -16.21,-0.08c1.43,-1.94 2.51,-3.92 4.89,-4.84c2.52,-0.84 5.8,-0.91 8.13,0.51z"/>
  <path id="svg_40" data-index="41" fill="#8a100b" d="m436.37,93.42c2.58,-0.67 5.93,-0.67 8.13,1.06c1.25,0.93 1.9,2.7 2.63,4.04c-5.39,0.12 -10.79,0.03 -16.18,-0.1c1.55,-2.12 2.7,-4.21 5.42,-5z"/>
  <path id="svg_41" data-index="42" fill="#000000" d="m550.78,98.94c-1.76,0.88 -3.55,1.71 -5.34,2.53c-0.34,-1.02 -0.69,-2.04 -1.02,-3.07c2.65,-1.5 4.19,-2.13 6.36,0.54z"/>
  <path id="svg_42" data-index="43" fill="#8a100b" d="m331.63,101.89c2.89,6.01 9.83,9.62 16.35,9.58c2.62,0.2 5.7,-0.48 7.84,1.32c-0.02,2.44 -2.8,3.27 -4.76,3.61c-4.97,0.75 -9.3,-1 -13.39,-3.64c-3.16,3.4 -6.3,6.83 -9.45,10.26c2.46,2.26 5.02,4.14 8.09,5.49c-4.53,6.7 -12,5.35 -19.02,5.14c-2.46,-0.05 -3.75,-1.99 -5.52,-3.43c7.76,-1.88 14.62,-6.41 17.35,-14.22c-4.45,-1.24 -8.89,-2.49 -13.36,-3.64c-3.43,3.9 -8.69,5.24 -13.59,3.51c-2.76,-1.31 -3.92,-3.79 -5.38,-6.29c11.09,-0.27 22.2,-0.23 33.3,-0.41c0.04,-2.99 -0.2,-5.95 -0.53,-8.92c1.15,0.37 1.52,0.41 2.07,1.64z"/>
  <path id="svg_43" data-index="45" fill="#e9d18b" d="m553.5,131.76c5.16,-1.15 10.52,-0.52 14.38,3.37c2.23,2.26 2.69,5.42 1.79,8.4c-1.52,5.15 -4.64,9.94 -8.37,13.77c-12.06,12.4 -25.63,21.43 -39.55,31.45c-1.24,0.85 -2.55,1.59 -3.87,2.3c0.76,-6.93 2.45,-13.75 3.62,-20.63c-6.68,-1.24 -13.34,-2.54 -19.98,-3.95c2.47,-2.55 4.8,-5.14 7.67,-7.26c8.19,-6.19 16.47,-12.26 24.91,-18.1c5.82,-4.07 12.45,-7.7 19.4,-9.35z"/>
  <path id="svg_44" data-index="46" fill="#fbf312" d="m87,147.16c14.63,-0.61 29.31,3.9 40.67,13.22c5.49,4.8 10,10.49 12.52,17.4c3.97,11.03 2.48,23.73 -3.8,33.61c-7.93,12.82 -22.61,20.66 -37.43,21.97c-5.04,0.53 -10.03,0.14 -15.04,-0.45c0.14,7.69 0.37,15.37 0.61,23.05c0.07,2.51 0.15,5.03 0.23,7.54c-2.85,0.02 -5.68,0.05 -8.53,-0.09c-3.09,-0.32 -6.18,-0.27 -9.28,-0.02c-4.61,0.23 -9.25,0.05 -13.87,0.09c-0.19,-4.33 -0.28,-8.65 -0.42,-12.98c-0.13,-4.05 -0.25,-8.11 -0.37,-12.16c-0.71,-24.45 -1.44,-48.9 -2.19,-73.34c0,-2.42 -0.46,-5.13 0.12,-7.48c11.35,-5.69 24.03,-9.83 36.78,-10.36z"/>
  <path id="svg_45" data-index="47" fill="#fbf312" d="m489.75,146.96c0.01,2.66 0.02,5.32 0.02,7.97c-0.02,22.03 0.08,44.05 0.09,66.08c0.01,3.97 0.53,7.7 3.8,10.34c3.94,3.2 8.66,3.28 13.26,1.56c0.56,2.32 1.14,4.63 1.74,6.93c0.91,3.41 1.79,6.82 2.56,10.25c0.75,3.18 1.57,6.35 2.34,9.52c-8.14,3.51 -16.22,5.01 -25.08,5.05c-1.14,-0.06 -2.29,-0.17 -3.42,-0.35c-4.71,-0.9 -9.2,-2.52 -13.13,-5.33c-2.17,-1.72 -4.2,-3.62 -5.96,-5.77c-4.84,-6.46 -6.56,-14.25 -6.49,-22.21c0.13,-13.04 0.12,-26.08 0.15,-39.12c0.1,-12.1 0.13,-24.21 0.1,-36.32c9.98,-2.96 20.01,-5.77 30.02,-8.6z"/>
  <path id="svg_46" data-index="48" fill="#8a100b" d="m500.61,153.59c2.66,0.72 5.09,2.66 7.42,4.07c-3.93,2.97 -7.25,6.44 -10.25,10.33c3.86,0.63 7.73,1.27 11.57,2.05c-0.58,2.3 -1.05,4.57 -1,6.96c0.12,14.68 0.03,29.36 0.06,44.04c-0.06,4.91 1.74,9.31 4.42,13.34c1.09,0.13 2.18,0.27 3.28,0.4c-2.4,1.82 -4.91,3.46 -7.45,5.06c-0.6,-2.3 -1.18,-4.61 -1.74,-6.93c-4.6,1.72 -9.32,1.64 -13.26,-1.56c-3.27,-2.64 -3.79,-6.37 -3.8,-10.34c-0.01,-22.03 -0.11,-44.05 -0.09,-66.08c3.53,-0.5 7.27,-1.62 10.84,-1.34z"/>
  <path id="svg_47" data-index="49" fill="#8a100b" d="m132.55,159.98c7.04,3.72 13.7,8.94 18.19,15.58c3.02,4.79 5.9,9.1 4.87,15.07c-6.02,4.74 -11.16,11.15 -13.43,18.55c-1.97,6.38 -2.21,13.32 -0.97,19.86c-6.56,4.11 -13.5,7.27 -21.13,8.75c-5.53,1.34 -11.15,-0.05 -16,3.4c-2.3,2.09 -3.33,5.76 -3.42,8.77c-0.08,4.23 0.04,8.45 -0.28,12.67c-5.42,-1.97 -10.56,-4.38 -15.85,-6.67c-0.24,-7.68 -0.47,-15.36 -0.61,-23.05c5.01,0.59 10,0.98 15.04,0.45c14.82,-1.31 29.5,-9.15 37.43,-21.97c6.28,-9.88 7.77,-22.58 3.8,-33.61c-2.52,-6.91 -7.03,-12.6 -12.52,-17.4c2.08,-1.23 2.7,-1.49 4.88,-0.4z"/>
  <path id="svg_48" data-index="50" fill="#c01621" d="m552.87,167.86c1.9,10.48 0.56,20.48 -3.88,30.13c-6.9,15.11 -19.67,27.12 -32.88,36.79c-1.1,-0.13 -2.19,-0.27 -3.28,-0.4c-2.68,-4.03 -4.48,-8.43 -4.42,-13.34c-0.03,-14.68 0.06,-29.36 -0.06,-44.04c-0.05,-2.39 0.42,-4.66 1,-6.96c3.29,0.65 6.59,1.25 9.9,1.86c-1.35,7.39 -2.82,14.75 -4.15,22.14c2.6,-0.98 5.12,-1.89 7.42,-3.5c10.25,-7.39 20.66,-14.53 30.35,-22.68z"/>
  <path id="svg_49" data-index="51" fill="#8a100b" d="m104.95,177.96c-2.86,3.05 -5.9,5.49 -6.16,10c-0.29,5.67 0.11,11.36 -0.14,17.03c-5.38,1.76 -9.99,1.75 -15.38,0.11c-0.26,-9.91 -0.37,-19.83 -0.64,-29.73c7.67,-3.59 15.74,-2.77 22.32,2.59z"/>
  <path id="svg_50" data-index="52" fill="#c01621" d="m104.95,177.96c4.63,4.03 6.94,10.26 5.21,16.26c-1.84,5.33 -6.44,8.75 -11.51,10.77c0.25,-5.67 -0.15,-11.36 0.14,-17.03c0.26,-4.51 3.3,-6.95 6.16,-10z"/>
  <path id="svg_51" data-index="53" fill="#fbf312" d="m352.6,182.76c7,2.39 13.36,5.97 19.13,10.59c-3.7,5.67 -7.42,11.32 -11.08,17.02c-8.89,-4.61 -18.95,-9.15 -29.18,-6.66c-2.34,0.68 -5.88,2.18 -4.79,5.27c1.92,2.49 6.45,2.5 9.3,2.66c7.88,0.07 15.3,0.49 22.59,3.77c5.34,2.46 9.95,6.38 11.94,12.06c2.81,8.27 0.44,17.32 -5.27,23.76c-9.16,10.53 -23.38,14.64 -37,13.7c-11.54,-1.34 -22.47,-4.98 -30.64,-13.59c5.29,-5.83 10.65,-11.59 15.97,-17.4c4.74,3.53 9.87,5.85 15.77,6.55c4.37,0.22 9.75,0.05 13.31,-2.84c1.7,-1.35 1.89,-4.05 -0.42,-4.89c-4.56,-1.66 -10.24,-0.42 -15.08,-1.05c-11.2,-1.53 -21.5,-8.22 -25.45,-19.13c-0.55,-3.13 -1.01,-6.16 -0.37,-9.32c1.16,-6.14 5.38,-11.38 10.25,-15.08c5.12,-3.66 10.96,-6.25 17.17,-7.36c8.07,-1.47 16.07,-0.42 23.85,1.94z"/>
  <path id="svg_52" data-index="54" fill="#fbf312" d="m216.32,190.57c5.13,4.64 9.16,10.23 11.25,16.88c3.9,12.54 2.32,26.98 -5.29,37.84c-7.84,11.53 -21.19,18.28 -35.03,18.76c-15.34,0.78 -30.42,-6.46 -39.16,-19.12c-3.36,-4.8 -5.66,-10.15 -6.88,-15.89c-1.24,-6.54 -1,-13.48 0.97,-19.86c2.27,-7.4 7.41,-13.81 13.43,-18.55c17.11,-13.32 43.52,-13.11 60.71,-0.06z"/>
  <path id="svg_53" data-index="56" fill="#fbf312" d="m232.46,182.34c9.79,-0.13 19.6,-0.01 29.39,-0.04c0.01,2.27 0.01,4.55 0.01,6.83c6.12,-4.75 13.29,-7.79 21.15,-7.61c4.79,0.1 9.14,1.82 13.21,4.24c2.42,1.69 4.54,3.71 6.6,5.81c-3.09,7.04 -6.56,13.93 -9.55,21.02l-0.21,0.4c-0.36,0.74 -0.8,1.44 -1.22,2.15c-5.71,-7.28 -17.71,-8.02 -24.09,-1.37c-4.37,4.88 -5.44,12.93 -5.83,19.23c-0.16,10.15 0,20.32 -0.07,30.47c-3.62,0.01 -7.24,0.02 -10.86,0.02c-6.18,-0.05 -12.36,0.03 -18.54,-0.02c-0.01,-2.1 -0.01,-4.21 -0.01,-6.31c0.02,-20.14 0.01,-40.28 0.01,-60.42c0.03,-4.8 -0.11,-9.61 0.01,-14.4z"/>
  <path id="svg_54" data-index="57" fill="#8a100b" d="m384.45,192.35c-5.36,4.79 -9.34,11.03 -11.01,18.06c-3.26,14.47 1.2,30.08 11.47,40.76c-3.48,7.35 -9.85,11.67 -16.99,15.03c-4.15,1.81 -8.3,3.36 -12.88,3.43c-4.69,0.06 -9.41,0.17 -14.08,-0.13c-4.66,-0.35 -8.77,-2.19 -12.72,-4.57c13.62,0.94 27.84,-3.17 37,-13.7c5.71,-6.44 8.08,-15.49 5.27,-23.76c-1.99,-5.68 -6.6,-9.6 -11.94,-12.06c-7.29,-3.28 -14.71,-3.7 -22.59,-3.77c-2.85,-0.16 -7.38,-0.17 -9.3,-2.66c-1.09,-3.09 2.45,-4.59 4.79,-5.27c10.23,-2.49 20.29,2.05 29.18,6.66c3.66,-5.7 7.38,-11.35 11.08,-17.02c-5.77,-4.62 -12.13,-8.2 -19.13,-10.59c11.1,-0.59 22.62,3.62 31.85,9.59z"/>
  <path id="svg_55" data-index="58" fill="#fbf312" d="m433.52,184.71c7.63,3.1 13.98,8.6 17.9,15.88c4.64,8.57 5.47,17.85 5.01,27.44c-18.7,0.17 -37.39,0.31 -56.08,0.61c2.16,4.68 4.83,9.17 9.89,11.09c7.91,2.13 16.72,0.26 21.89,-6.42c7.58,2.01 15.14,4.12 22.69,6.26c-2.19,6.28 -5.68,11.2 -10.88,15.34c-8.05,6.43 -18.57,9.79 -28.84,9.65c-11.69,-0.38 -22.07,-5 -30.19,-13.39c-10.27,-10.68 -14.73,-26.29 -11.47,-40.76c1.67,-7.03 5.65,-13.27 11.01,-18.06c13.33,-11.58 32.8,-13.18 49.07,-7.64z"/>
  <path id="svg_56" data-index="59" fill="#8a100b" d="m459.63,191.88c-0.03,13.04 -0.02,26.08 -0.15,39.12c-0.07,7.96 1.65,15.75 6.49,22.21c-4.46,7.94 -12.81,12.23 -21.21,14.81c-5.16,1.76 -10.43,1.81 -15.81,1.53c-5.11,-0.4 -9.98,-1.35 -13.85,-4.99c10.27,0.14 20.79,-3.22 28.84,-9.65c5.2,-4.14 8.69,-9.06 10.88,-15.34c-7.55,-2.14 -15.11,-4.25 -22.69,-6.26c-5.17,6.68 -13.98,8.55 -21.89,6.42c-5.06,-1.92 -7.73,-6.41 -9.89,-11.09c18.69,-0.3 37.38,-0.44 56.08,-0.61c0.46,-9.59 -0.37,-18.87 -5.01,-27.44c-3.92,-7.28 -10.27,-12.78 -17.9,-15.88c9.63,-0.45 17.65,3.14 26.11,7.17z"/>
  <path id="svg_57" data-index="60" fill="#8a100b" d="m311.58,188.18c-4.87,3.7 -9.09,8.94 -10.25,15.08c-0.64,3.16 -0.18,6.19 0.37,9.32c-2.04,1.87 -6.31,1.69 -8.43,0.01c2.99,-7.09 6.46,-13.98 9.55,-21.02c-2.06,-2.1 -4.18,-4.12 -6.6,-5.81c5.67,-0.77 10.14,0.38 15.36,2.42z"/>
  <path id="svg_58" data-index="61" fill="#8a100b" d="m219.91,189.63c4.51,1.48 8.8,4.21 12.54,7.11c0,20.14 0.01,40.28 -0.01,60.42c-6.49,6.13 -14.89,9.77 -23.62,11.27c-7.44,0.46 -14.43,0.85 -21.45,-2.07c-0.04,-0.77 -0.08,-1.54 -0.12,-2.31c13.84,-0.48 27.19,-7.23 35.03,-18.76c7.61,-10.86 9.19,-25.3 5.29,-37.84c-2.09,-6.65 -6.12,-12.24 -11.25,-16.88c1.13,-1.1 2.32,-1.42 3.59,-0.94z"/>
  <path id="svg_59" data-index="62" fill="#8a100b" d="m424.15,203.86c1.92,1.73 2.41,3.9 3.27,6.23c-8.97,0.02 -17.96,0.01 -26.94,-0.15c1.81,-3.38 3.73,-6.4 7.36,-8.04c5.02,-2.22 12.18,-2.02 16.31,1.96z"/>
  <path id="svg_60" data-index="63" fill="#8a100b" d="m192.93,207.99c3.55,1.55 5.61,4.48 7.28,7.83c-4.31,1.43 -7.96,3.81 -9.77,8.13c-0.4,2.87 -0.68,6.71 1.16,9.16c0.72,1.15 1.5,2.22 2.28,3.32c-6.88,3.04 -15.55,2.13 -20.89,-3.42c-5.82,-5.75 -5.57,-16.11 0.26,-21.76c4.95,-5.15 13.32,-5.91 19.68,-3.26z"/>
  <path id="svg_61" data-index="64" fill="#8a100b" d="m291.84,215.14c-3.91,3.01 -7.91,4.6 -10.02,9.42c-4.48,11.02 -2.93,21.04 -3.23,32.5c-0.07,5.1 -2.53,9.82 -7.74,11.18c-4.51,0.73 -9.33,0.53 -13.88,0.2c-2.9,-0.28 -4.29,-2.94 -5.98,-4.95c3.62,0 7.24,-0.01 10.86,-0.02c0.07,-10.15 -0.09,-20.32 0.07,-30.47c0.39,-6.3 1.46,-14.35 5.83,-19.23c6.38,-6.65 18.38,-5.91 24.09,1.37z"/>
  <path id="svg_62" data-index="65" fill="#c01621" d="m293.06,212.99l0.21,-0.4c2.12,1.68 6.39,1.86 8.43,-0.01c3.95,10.91 14.25,17.6 25.45,19.13c1.16,1.57 2.88,3.25 3.34,5.18c-0.34,1.21 -0.72,2.41 -1.15,3.6c-5.9,-0.7 -11.03,-3.02 -15.77,-6.55c-5.32,5.81 -10.68,11.57 -15.97,17.4c8.17,8.61 19.1,12.25 30.64,13.59c3.95,2.38 8.06,4.22 12.72,4.57c4.67,0.3 9.39,0.19 14.08,0.13c4.58,-0.07 8.73,-1.62 12.88,-3.43c7.14,-3.36 13.51,-7.68 16.99,-15.03c8.12,8.39 18.5,13.01 30.19,13.39c3.87,3.64 8.74,4.59 13.85,4.99c5.38,0.28 10.65,0.23 15.81,-1.53c8.4,-2.58 16.75,-6.87 21.21,-14.81c1.76,2.15 3.79,4.05 5.96,5.77c-28.97,11.98 -59.1,20.26 -89.97,25.64c-33.91,5.95 -68.54,8.62 -102.96,8.5c-37.15,-0.19 -74.57,-3.62 -111,-11.01c-22.93,-4.68 -45.81,-10.92 -67.62,-19.48c0.32,-4.22 0.2,-8.44 0.28,-12.67c0.09,-3.01 1.12,-6.68 3.42,-8.77c4.85,-3.45 10.47,-2.06 16,-3.4c7.63,-1.48 14.57,-4.64 21.13,-8.75c1.22,5.74 3.52,11.09 6.88,15.89c8.74,12.66 23.82,19.9 39.16,19.12c0.04,0.77 0.08,1.54 0.12,2.31c7.02,2.92 14.01,2.53 21.45,2.07c8.73,-1.5 17.13,-5.14 23.62,-11.27c0,2.1 0,4.21 0.01,6.31c6.18,0.05 12.36,-0.03 18.54,0.02c1.69,2.01 3.08,4.67 5.98,4.95c4.55,0.33 9.37,0.53 13.88,-0.2c5.21,-1.36 7.67,-6.08 7.74,-11.18c0.3,-11.46 -1.25,-21.48 3.23,-32.5c2.11,-4.82 6.11,-6.41 10.02,-9.42c0.42,-0.71 0.86,-1.41 1.22,-2.15z"/>
  <path id="svg_63" data-index="66" fill="#c01621" d="m200.21,215.82c2.68,7.68 1.23,16.43 -6.33,20.61c-0.78,-1.1 -1.56,-2.17 -2.28,-3.32c-1.84,-2.45 -1.56,-6.29 -1.16,-9.16c1.81,-4.32 5.46,-6.7 9.77,-8.13z"/>
  <path id="svg_64" data-index="67" fill="#8a100b" d="m327.15,231.71c4.84,0.63 10.52,-0.61 15.08,1.05c2.31,0.84 2.12,3.54 0.42,4.89c-3.56,2.89 -8.94,3.06 -13.31,2.84c0.43,-1.19 0.81,-2.39 1.15,-3.6c-0.46,-1.93 -2.18,-3.61 -3.34,-5.18z"/>
  <path id="svg_66" data-index="69" fill="#000000" d="m84.53,255.96c5.29,2.29 10.43,4.7 15.85,6.67c21.81,8.56 44.69,14.8 67.62,19.48c36.43,7.39 73.85,10.82 111,11.01c34.42,0.12 69.05,-2.55 102.96,-8.5c30.87,-5.38 61,-13.66 89.97,-25.64c3.93,2.81 8.42,4.43 13.13,5.33c-24.72,11.24 -50.66,19.44 -77.14,25.35c-37.69,8.5 -76.04,12.3 -114.61,13.34l-24.72,0c-6.86,-0.45 -13.74,-0.49 -20.6,-0.91c-51.85,-2.82 -105.2,-11.9 -153.7,-30.9c-6.05,-2.54 -12.15,-4.92 -18.06,-7.78c2.85,0.14 5.68,0.11 8.53,0.09c-0.08,-2.51 -0.16,-5.03 -0.23,-7.54z"/>
 </g>
</svg>